HIERARCHY
ROOT Hips
{
 OFFSET 0.000000 0.000000 0.000000
 CHANNELS 6 Xposition Yposition Zposition Yrotation Xrotation Zrotation
 JOINT Chest
 {
  OFFSET 0.000000 9.585900 0.002600
  CHANNELS 3 Yrotation Xrotation Zrotation
  JOINT Chest2
  {
   OFFSET 0.000000 9.601200 -0.005300
   CHANNELS 3 Yrotation Xrotation Zrotation
   JOINT Chest3
   {
    OFFSET 0.000000 9.561800 0.000000
    CHANNELS 3 Yrotation Xrotation Zrotation
    JOINT Chest4
    {
     OFFSET 0.000000 9.552100 0.000000
     CHANNELS 3 Yrotation Xrotation Zrotation
     JOINT Neck
     {
      OFFSET 0.000000 14.453000 0.000000
      CHANNELS 3 Yrotation Xrotation Zrotation
      JOINT Head
      {
       OFFSET 0.000000 8.936500 -0.011300
       CHANNELS 3 Yrotation Xrotation Zrotation
       End Site
       {
        OFFSET 0.000000 17.073600 -0.006000
       }
      }
     }
     JOINT RightCollar
     {
      OFFSET -2.921100 9.558500 0.000000
      CHANNELS 3 Yrotation Xrotation Zrotation
      JOINT RightShoulder
      {
       OFFSET -13.519700 0.000000 0.000000
       CHANNELS 3 Yrotation Xrotation Zrotation
       JOINT RightElbow
       {
        OFFSET 0.000000 -29.696600 0.000000
        CHANNELS 3 Yrotation Xrotation Zrotation
        JOINT RightWrist
        {
         OFFSET 0.000000 -24.004700 0.000000
         CHANNELS 3 Yrotation Xrotation Zrotation
         End Site
         {
          OFFSET 0.000000 -17.728500 0.000000
         }
        }
       }
      }
     }
     JOINT LeftCollar
     {
      OFFSET 2.921100 9.558500 0.000000
      CHANNELS 3 Yrotation Xrotation Zrotation
      JOINT LeftShoulder
      {
       OFFSET 13.519700 0.000000 0.000000
       CHANNELS 3 Yrotation Xrotation Zrotation
       JOINT LeftElbow
       {
        OFFSET 0.000000 -29.696600 0.000000
        CHANNELS 3 Yrotation Xrotation Zrotation
        JOINT LeftWrist
        {
         OFFSET 0.000000 -24.004700 0.000000
         CHANNELS 3 Yrotation Xrotation Zrotation
         End Site
         {
          OFFSET 0.000000 -17.728500 0.000000
         }
        }
       }
      }
     }
    }
   }
  }
 }
 JOINT RightHip
 {
  OFFSET -7.771700 -0.012900 -0.001300
  CHANNELS 3 Yrotation Xrotation Zrotation
  JOINT RightKnee
  {
   OFFSET 0.000000 -40.869800 0.001200
   CHANNELS 3 Yrotation Xrotation Zrotation
   JOINT RightAnkle
   {
    OFFSET 0.000000 -39.717900 0.002100
    CHANNELS 3 Yrotation Xrotation Zrotation
    JOINT RightToe
    {
     OFFSET 0.000000 -4.965400 11.033500
     CHANNELS 3 Yrotation Xrotation Zrotation
     End Site
     {
      OFFSET 0.000000 -1.423100 5.872300
     }
    }
   }
  }
 }
 JOINT LeftHip
 {
  OFFSET 7.771700 -0.012900 -0.001300
  CHANNELS 3 Yrotation Xrotation Zrotation
  JOINT LeftKnee
  {
   OFFSET 0.000000 -40.869800 0.001200
   CHANNELS 3 Yrotation Xrotation Zrotation
   JOINT LeftAnkle
   {
    OFFSET 0.000000 -39.717900 0.002100
    CHANNELS 3 Yrotation Xrotation Zrotation
    JOINT LeftToe
    {
     OFFSET 0.000000 -4.965400 11.033500
     CHANNELS 3 Yrotation Xrotation Zrotation
     End Site
     {
      OFFSET 0.000000 -1.423100 5.872300
     }
    }
   }
  }
 }
}
MOTION
Frames: 8
Frame Time: 0.008333
0.000000 85.388000 0.000000 0.000000 -5.767877 0.000000 0.000000 11.653817 0.000000 0.000000 -5.885947 0.000000 0.000000 -0.000000 0.000000 0.000000 -0.000000 0.000000 0.000000 12.528835 0.000000 0.000000 0.711642 0.000000 0.000000 -0.000000 0.000000 0.000000 0.000000 -90.000000 0.000000 -2.309062 0.000000 0.000000 2.309062 0.000000 0.000000 -0.000000 0.000000 0.000000 -0.000000 90.000000 0.000000 -2.309062 0.000000 0.000000 2.309062 0.000000 0.000000 8.520406 0.000000 0.000000 1.905762 0.000000 -0.000000 -4.658285 0.000000 0.000000 -0.000000 0.000000 0.000000 8.520406 0.000000 0.000000 1.905762 0.000000 -0.000000 -4.658285 0.000000 0.000000 -0.000000 0.000000
-87.555726 62.048605 18.091422 173.393189 -48.458744 -1.408249 4.640698 26.613702 2.537553 0.636749 4.509060 0.375844 1.034144 7.183169 0.629074 3.470155 21.580986 2.368740 2.889228 16.148306 5.803862 3.309566 -5.812568 9.758078 3.182919 7.887966 3.964651 -13.491545 -11.985870 -13.277029 -91.114657 -42.113003 135.515382 -9.449794 0.207573 30.196538 -8.122167 3.471191 1.036231 7.280952 -6.930177 9.759970 74.740556 -43.327273 -121.485210 10.191194 -0.625359 -35.439418 3.306010 -18.823257 -2.635897 -1.752259 60.809495 -4.796414 2.525476 -5.868413 10.200963 0.211674 -0.524583 0.097910 -3.717413 -15.225959 6.108860 28.029892 76.472863 29.680437 1.220239 -11.575502 -5.358082 0.200388 0.691049 0.078680
-87.554719 62.046433 18.091852 173.391457 -48.456937 -1.413113 4.632853 26.586318 2.529249 0.639556 4.514733 0.378652 1.036420 7.175622 0.630501 3.460438 21.568456 2.360073 2.825575 16.157826 5.717495 3.222454 -5.793652 9.619890 3.177241 7.876271 3.974225 -13.500592 -12.039370 -13.283698 -91.129601 -42.143999 135.498887 -9.438553 0.211920 30.191242 -8.147366 3.442082 1.022957 7.275816 -6.965571 9.778439 74.737065 -43.323518 -121.461343 10.193732 -0.620064 -35.451039 3.306307 -18.829599 -2.624753 -1.757990 60.813939 -4.805134 2.527117 -5.865612 10.199928 0.214775 -0.516613 0.098737 -3.725979 -15.227879 6.111020 28.010521 76.478035 29.669368 1.221643 -11.578746 -5.370634 0.213393 0.694496 0.082004
-87.555093 62.044435 18.092261 173.390348 -48.458956 -1.411119 4.624942 26.574169 2.517501 0.636212 4.503983 0.375294 1.027738 7.149496 0.622593 3.467983 21.581859 2.361994 2.765357 16.163568 5.633674 3.140567 -5.781891 9.485399 3.176702 7.856239 3.987515 -13.501704 -12.091485 -13.295924 -91.150930 -42.177153 135.482110 -9.434040 0.215270 30.182456 -8.175815 3.407560 1.004883 7.267334 -7.004146 9.805325 74.756277 -43.322426 -121.469186 10.205271 -0.610153 -35.437627 3.307360 -18.830782 -2.622259 -1.754132 60.817238 -4.806845 2.529188 -5.865834 10.199916 0.210888 -0.511610 0.099675 -3.734757 -15.226773 6.104878 28.036713 76.478077 29.693269 1.229639 -11.579687 -5.374142 0.207941 0.697253 0.080584
-87.556130 62.042761 18.092917 173.387101 -48.465059 -1.404924 4.618039 26.565482 2.502932 0.637017 4.504206 0.376612 1.031393 7.157520 0.625961 3.454789 21.555597 2.347035 2.706303 16.163751 5.552669 3.059506 -5.780379 9.356026 3.178089 7.830995 3.999839 -13.497146 -12.144119 -13.310723 -91.176359 -42.208192 135.464457 -9.484456 0.244271 30.162185 -8.205339 3.382745 0.986364 7.280664 -7.003135 9.834204 74.803711 -43.333155 -121.534625 10.209170 -0.606699 -35.438285 3.309669 -18.829300 -2.619978 -1.757810 60.823495 -4.817958 2.529263 -5.866526 10.198896 0.209195 -0.511132 0.103863 -3.741810 -15.220905 6.094950 28.070532 76.475857 29.724591 1.233401 -11.581064 -5.375172 0.202410 0.701446 0.078375
-87.555723 62.040983 18.094752 173.386501 -48.470569 -1.411478 4.618723 26.562696 2.505670 0.638321 4.506901 0.378639 1.023893 7.136139 0.618087 3.460147 21.566057 2.349057 2.640827 16.143612 5.465982 2.981270 -5.789768 9.233243 3.167216 7.739473 3.995815 -13.486528 -12.148119 -13.333148 -91.205420 -42.237927 135.447436 -9.537025 0.271734 30.139588 -8.246727 3.341721 0.960557 7.254620 -7.094743 9.863853 74.800090 -43.331509 -121.481808 10.216649 -0.604371 -35.432627 3.306413 -18.826864 -2.604016 -1.749156 60.824330 -4.819658 2.523558 -5.865152 10.196715 0.212219 -0.505798 0.107590 -3.749698 -15.214595 6.092030 28.096168 76.468519 29.764208 1.228875 -11.579447 -5.398782 0.216871 0.707661 0.090872
-87.556603 62.039541 18.097114 173.384864 -48.478659 -1.411502 4.617717 26.563287 2.501745 0.634705 4.495728 0.372781 1.023041 7.130832 0.616069 3.465782 21.574499 2.353124 2.579385 16.120322 5.380316 2.906369 -5.811173 9.117759 3.173903 7.704628 3.998089 -13.488957 -12.209754 -13.350287 -91.236593 -42.266785 135.433151 -9.538613 0.270365 30.121895 -8.289967 3.301257 0.932715 7.228332 -7.190756 9.897953 74.775140 -43.322863 -121.388684 10.207984 -0.615520 -35.446272 3.305947 -18.821359 -2.597586 -1.753578 60.824338 -4.827363 2.519757 -5.865470 10.194379 0.214131 -0.498393 0.108042 -3.753444 -15.206594 6.086447 28.125810 76.463328 29.798062 1.225492 -11.581882 -5.403081 0.218362 0.713216 0.090368
-87.557638 62.038656 18.100032 173.381640 -48.490470 -1.411426 4.615999 26.559099 2.493080 0.634540 4.492412 0.370824 1.022643 7.125721 0.612824 3.464982 21.568740 2.344294 2.532106 16.110820 5.310882 2.834127 -5.847348 9.007097 3.189840 7.688072 4.015273 -13.492974 -12.276555 -13.371595 -91.226995 -42.282600 135.386379 -9.440357 0.210917 30.111352 -8.324696 3.279008 0.913377 7.206872 -7.260010 9.937128 74.722980 -43.304863 -121.254989 10.195055 -0.626885 -35.464474 3.306974 -18.810896 -2.588977 -1.733913 60.822340 -4.821466 2.522793 -5.867120 10.201054 0.219033 -0.491577 0.105177 -3.753092 -15.195412 6.085556 28.138327 76.461206 29.812029 1.223707 -11.584300 -5.405717 0.218125 0.717287 0.092405
